<?xml version="1.0" standalone="no"?>
<!DOCTYPE svg PUBLIC "-//W3C//DTD SVG 20010904//EN"
 "http://www.w3.org/TR/2001/REC-SVG-20010904/DTD/svg10.dtd">
<svg version="1.0" xmlns="http://www.w3.org/2000/svg"
 width="1080.000000pt" height="1080.000000pt" viewBox="0 0 1080.000000 1080.000000"
 preserveAspectRatio="xMidYMid meet">

<g transform="translate(0.000000,1080.000000) scale(0.100000,-0.100000)"
fill="#000000" stroke="none">
<path d="M5257 9009 c-106 -25 -199 -106 -238 -208 -17 -45 -20 -71 -17 -136
5 -89 26 -140 83 -204 116 -128 399 -147 517 -34 l27 26 -46 52 -47 53 -40
-27 c-35 -23 -50 -26 -121 -26 -70 0 -86 3 -117 25 -37 24 -68 67 -68 92 0 11
45 12 245 9 l245 -3 0 54 c0 113 -55 223 -138 277 -81 52 -193 72 -285 50z
m158 -148 c46 -21 59 -34 80 -84 l15 -37 -160 0 -160 0 0 27 c0 30 66 99 102
106 49 9 85 6 123 -12z"/>
<path d="M5854 8956 c-5 -14 -124 -605 -124 -615 0 -8 169 -45 176 -39 2 2 19
80 38 172 20 93 44 183 53 200 11 18 38 41 67 55 43 21 54 23 101 14 l53 -9
16 80 c9 43 14 82 11 85 -3 2 -34 5 -69 5 -47 0 -76 -7 -113 -25 l-50 -24 8
35 c4 19 6 37 3 40 -3 3 -42 12 -86 21 -57 12 -81 13 -84 5z"/>
<path d="M4520 8936 c-106 -31 -190 -100 -232 -191 -34 -75 -32 -189 6 -273
79 -173 272 -233 490 -151 59 21 163 109 152 127 -2 4 -30 25 -60 46 l-56 39
-20 -26 c-43 -54 -156 -87 -231 -67 -45 12 -118 76 -102 90 4 4 91 24 193 44
102 21 207 42 234 48 l48 10 -6 44 c-13 98 -84 197 -170 239 -65 32 -177 42
-246 21z m168 -153 c32 -24 68 -71 60 -78 -6 -6 -279 -65 -298 -65 -15 0 -12
47 4 78 19 36 54 67 91 80 41 16 112 8 143 -15z"/>
<path d="M3840 8721 c-86 -27 -159 -82 -192 -145 -19 -38 -21 -39 -34 -21 -8
10 -14 25 -14 32 0 17 3 18 -88 -24 l-80 -38 134 -285 c73 -157 134 -289 136
-293 3 -6 151 55 167 69 2 1 -31 76 -72 166 -90 195 -95 218 -65 278 41 81
133 112 198 68 37 -26 53 -53 145 -250 l63 -137 81 37 c45 20 81 40 81 44 0 4
-40 94 -90 200 -76 163 -97 200 -138 240 -65 61 -151 83 -232 59z"/>
<path d="M3021 8603 c-38 -19 -71 -66 -71 -101 0 -35 30 -79 62 -93 39 -16 92
-3 126 31 34 33 42 62 30 106 -16 63 -84 89 -147 57z"/>
<path d="M7330 8323 c-191 -228 -220 -277 -228 -383 -8 -116 42 -217 153 -309
87 -72 147 -96 245 -96 151 0 196 34 454 342 75 89 136 165 136 167 0 7 -133
116 -141 116 -4 0 -76 -82 -160 -182 -174 -207 -210 -243 -258 -259 -107 -36
-244 59 -245 169 -1 71 28 118 204 327 88 104 160 193 160 197 0 7 -131 118
-141 118 -3 0 -84 -93 -179 -207z"/>
<path d="M3177 8347 l-77 -54 180 -259 c99 -142 185 -261 190 -262 8 -3 86 47
148 94 2 1 -78 121 -179 266 -100 145 -183 264 -184 265 -1 2 -36 -21 -78 -50z"/>
<path d="M6514 8291 c-30 -18 -54 -64 -54 -103 0 -32 29 -77 60 -93 83 -43
170 12 170 107 0 85 -100 135 -176 89z"/>
<path d="M2856 8111 l-60 -61 22 -23 c12 -13 22 -26 22 -29 0 -3 -21 -9 -47
-13 -67 -10 -111 -35 -166 -94 -71 -75 -92 -128 -91 -226 0 -63 5 -89 22 -123
58 -110 167 -182 278 -182 155 0 302 116 320 254 7 45 7 46 26 29 37 -33 60
-82 60 -128 0 -53 -25 -97 -83 -150 -43 -39 -151 -95 -182 -95 -13 0 -17 -5
-13 -17 3 -10 12 -44 21 -76 16 -54 18 -57 43 -51 74 16 175 78 251 152 102
101 136 169 135 267 -1 114 -22 146 -278 403 l-221 223 -59 -60z m74 -241 c62
-17 120 -93 120 -157 0 -49 -40 -113 -88 -144 -176 -111 -343 111 -193 255 26
24 88 54 116 56 6 0 26 -5 45 -10z"/>
<path d="M8245 7859 c-3 -8 -40 -113 -83 -234 l-78 -220 -262 -3 c-144 -1
-262 -4 -262 -7 0 -3 26 -42 58 -87 l58 -81 177 2 c97 1 177 -1 177 -5 0 -4
-27 -81 -60 -171 l-59 -163 63 -90 63 -90 89 253 89 252 248 -4 c136 -2 247
-1 247 3 0 4 -26 43 -57 87 l-57 79 -167 0 -167 0 35 98 c20 53 45 125 56 159
l21 61 -54 79 c-67 98 -68 100 -75 82z"/>
<path d="M2297 7416 c-53 -20 -105 -62 -138 -114 -37 -58 -49 -102 -49 -175
l0 -58 -30 17 c-16 10 -31 16 -34 13 -22 -24 -85 -143 -79 -149 25 -24 537
-328 544 -324 10 6 89 137 89 146 0 4 -67 47 -148 97 -186 113 -212 140 -212
218 0 41 29 97 63 125 14 11 40 18 68 18 42 0 65 -11 213 -101 91 -55 170 -97
176 -94 12 8 94 144 89 149 -2 2 -83 52 -179 110 -220 134 -282 154 -373 122z"/>
<path d="M1591 6542 c-49 -152 -93 -289 -96 -304 l-7 -27 314 -101 c172 -56
352 -114 399 -129 l86 -29 97 302 c53 165 96 306 96 312 0 6 -26 18 -57 28
-32 10 -63 21 -70 23 -8 3 -36 -70 -83 -215 l-71 -220 -92 30 c-50 16 -93 31
-94 32 -2 2 98 322 113 361 4 10 -13 19 -62 34 -38 11 -72 17 -75 13 -4 -4
-33 -87 -64 -185 -44 -137 -60 -177 -71 -173 -8 3 -47 15 -87 27 -40 12 -73
23 -75 24 -1 1 27 96 64 209 37 115 63 211 58 215 -5 5 -37 18 -71 29 l-63 21
-89 -277z"/>
<path d="M8570 6531 c-212 -53 -391 -99 -397 -101 -19 -7 78 -395 122 -487 18
-40 55 -95 81 -123 58 -62 160 -115 241 -125 72 -8 180 13 253 50 146 74 232
233 217 405 -7 88 -106 480 -121 479 -6 -1 -184 -45 -396 -98z m335 -260 c29
-125 28 -176 -5 -241 -66 -128 -253 -180 -376 -104 -66 41 -105 108 -138 240
-15 59 -25 109 -22 111 3 3 116 33 253 67 167 42 250 59 254 52 4 -6 19 -62
34 -125z"/>
<path d="M8601 5609 c-104 -20 -181 -84 -229 -188 -21 -45 -27 -75 -30 -153
-5 -115 14 -188 63 -245 l32 -37 52 43 c28 23 51 44 51 46 0 1 -12 24 -27 51
-22 39 -27 61 -27 114 0 40 6 77 16 95 20 38 66 81 96 90 l22 6 0 -244 0 -245
27 -5 c16 -3 51 -1 80 3 112 18 188 73 241 173 24 47 27 62 27 157 0 87 -4
113 -22 152 -45 98 -135 167 -243 188 -59 11 -68 11 -129 -1z m187 -199 c48
-30 72 -75 72 -140 0 -65 -24 -110 -72 -140 -62 -38 -68 -32 -68 73 0 127 11
227 24 227 6 0 26 -9 44 -20z"/>
<path d="M1805 5586 c-85 -27 -152 -83 -193 -160 -25 -46 -27 -61 -27 -161 0
-107 1 -112 36 -175 65 -118 175 -177 313 -168 140 9 248 98 290 238 35 118
10 285 -55 363 l-32 39 -53 -53 c-46 -46 -52 -55 -40 -68 50 -58 63 -179 26
-252 -20 -38 -70 -79 -97 -79 -10 0 -13 56 -13 245 l0 245 -57 -1 c-32 0 -76
-6 -98 -13z m48 -318 c4 -84 4 -155 0 -159 -15 -15 -90 28 -113 65 -19 31 -22
47 -18 103 4 62 6 68 46 104 73 69 78 62 85 -113z"/>
<path d="M8366 4897 c-36 -47 -76 -141 -92 -217 -39 -184 13 -312 140 -341 50
-11 58 -10 100 10 55 27 78 57 123 164 54 128 64 146 84 152 30 10 58 -12 65
-51 9 -48 -18 -145 -58 -207 -34 -54 -39 -44 46 -104 37 -27 38 -27 53 -8 52
69 103 226 103 315 0 115 -59 206 -151 230 -93 25 -165 -21 -218 -142 -64
-146 -85 -183 -108 -186 -27 -4 -53 32 -53 74 0 52 37 155 76 213 20 29 32 56
27 60 -38 33 -93 71 -101 71 -6 0 -22 -15 -36 -33z"/>
<path d="M1673 4813 c-71 -15 -71 -15 -63 -43 16 -55 43 -100 81 -135 45 -41
47 -45 17 -45 -48 0 -51 -11 -34 -96 9 -42 18 -79 20 -82 4 -4 618 117 625
124 6 5 -20 149 -29 165 -7 10 -42 6 -167 -19 -87 -18 -173 -32 -191 -32 -77
0 -130 46 -154 134 -7 25 -17 45 -23 45 -5 -1 -42 -8 -82 -16z"/>
<path d="M2144 4356 c-100 -40 -202 -87 -227 -104 -88 -61 -118 -175 -81 -303
27 -94 102 -211 163 -257 l28 -20 45 53 45 54 -52 54 c-55 56 -85 122 -85 185
0 25 9 43 34 68 19 19 38 34 43 34 4 0 19 -28 32 -62 35 -91 76 -170 107 -208
29 -34 94 -69 129 -70 80 0 164 64 185 140 29 107 -37 261 -130 308 l-41 20
36 13 c19 7 34 18 31 24 -46 116 -60 145 -70 145 -6 -1 -92 -34 -192 -74z
m162 -192 c56 -37 82 -140 46 -183 -22 -29 -76 -31 -103 -5 -10 11 -35 57 -54
102 l-35 83 33 15 c37 16 75 12 113 -12z"/>
<path d="M8176 4296 c-28 -68 -50 -136 -45 -141 7 -6 564 -213 585 -217 12 -2
24 18 44 72 16 41 29 80 29 85 1 6 -38 24 -87 42 -48 18 -183 68 -300 112
l-213 79 -13 -32z"/>
<path d="M7928 4120 c-52 -28 -130 -107 -177 -180 -89 -138 -108 -259 -58
-363 16 -31 48 -73 71 -94 33 -29 503 -313 547 -331 4 -2 28 31 53 72 l45 76
-36 18 c-39 20 -37 23 19 41 20 7 54 29 76 50 94 92 130 253 80 363 -36 78
-71 113 -150 153 -123 61 -243 45 -343 -47 -74 -68 -110 -142 -110 -229 0 -64
-1 -66 -20 -57 -57 30 -95 86 -95 143 0 74 91 203 188 265 l24 15 -37 63 c-21
34 -38 62 -39 62 0 -1 -17 -10 -38 -20z m407 -374 c50 -39 68 -79 63 -142 -11
-136 -149 -212 -256 -142 -77 52 -93 151 -38 235 55 83 157 105 231 49z"/>
<path d="M8891 4034 c-64 -54 -63 -145 3 -185 38 -23 58 -24 96 -4 38 19 60
63 60 115 0 87 -93 130 -159 74z"/>
<path d="M2385 3629 c-137 -43 -280 -88 -318 -100 l-68 -20 48 -60 c26 -33 50
-62 53 -64 4 -2 104 27 224 64 121 38 215 63 213 57 -3 -7 -57 -92 -121 -190
-64 -98 -118 -181 -119 -186 -1 -4 19 -34 45 -68 l46 -60 218 69 c120 37 220
67 222 65 2 -2 -54 -90 -123 -194 l-127 -190 49 -66 c26 -36 51 -65 55 -66 8
0 368 555 368 569 0 16 -93 140 -105 140 -5 1 -98 -26 -204 -59 -107 -33 -196
-58 -198 -56 -2 2 46 80 107 175 60 94 110 175 110 181 0 20 -95 139 -110 139
-8 -1 -127 -36 -265 -80z"/>
<path d="M7649 3344 l-63 -64 136 -137 c141 -144 167 -185 153 -241 -11 -46
-51 -98 -91 -117 -64 -30 -96 -13 -257 141 -77 74 -143 134 -146 134 -4 0 -35
-29 -69 -63 l-63 -64 159 -150 c185 -176 219 -197 312 -197 78 0 125 22 186
86 50 51 70 90 85 158 l11 52 27 -26 26 -25 58 64 c31 35 57 65 57 67 0 2
-103 103 -228 225 l-229 222 -64 -65z"/>
<path d="M3157 3053 c-15 -27 -38 -118 -31 -120 5 -2 24 -12 42 -23 38 -23 57
-59 48 -92 -6 -24 -169 -230 -186 -236 -5 -2 -35 18 -67 43 l-58 47 -42 -48
c-24 -27 -43 -53 -43 -59 1 -5 28 -31 61 -57 l60 -46 -51 -62 -52 -61 24 -18
c13 -10 45 -37 72 -58 l49 -40 49 59 c27 32 51 58 54 58 4 0 19 -11 36 -25 16
-14 33 -25 37 -25 4 0 27 22 50 50 l42 49 -38 34 -37 34 93 117 c112 140 131
175 131 239 0 59 -25 109 -82 164 -56 55 -148 98 -161 76z"/>
<path d="M7015 2773 c-118 -42 -210 -118 -251 -206 -13 -29 -24 -57 -24 -63 0
-10 127 -51 134 -43 1 2 14 24 28 49 59 103 192 151 276 100 17 -11 32 -22 32
-24 0 -2 -62 -44 -137 -92 -76 -48 -168 -107 -206 -132 l-68 -43 23 -41 c31
-54 89 -105 155 -135 76 -35 191 -30 271 11 71 36 132 93 168 158 26 48 29 62
29 148 0 81 -4 102 -24 140 -66 126 -148 182 -276 187 -58 3 -93 -1 -130 -14z
m269 -299 c41 -108 -86 -236 -202 -204 -43 11 -81 45 -66 59 16 15 247 161
255 161 4 0 10 -7 13 -16z"/>
<path d="M3540 2501 l-126 -209 -64 39 c-36 21 -68 39 -71 39 -4 0 -22 -26
-42 -59 l-35 -58 64 -38 c35 -20 67 -41 70 -46 8 -14 -23 -58 -51 -71 -32 -15
-72 -3 -107 32 l-29 30 -50 -42 c-27 -22 -49 -47 -49 -53 0 -20 78 -85 134
-111 33 -16 69 -24 104 -24 83 0 130 27 192 109 l25 33 38 -22 c44 -26 48 -24
91 51 l26 45 -40 23 c-22 12 -40 26 -40 31 0 5 54 99 121 209 66 111 118 205
115 210 -5 8 -140 91 -148 91 -2 0 -60 -94 -128 -209z"/>
<path d="M6503 2498 c-40 -17 -73 -34 -73 -39 0 -5 28 -76 61 -157 74 -177 82
-235 37 -293 -14 -19 -46 -44 -70 -54 -23 -10 -45 -20 -47 -22 -5 -3 48 -134
59 -146 19 -22 121 57 152 117 l21 41 15 -35 c7 -19 15 -36 17 -38 1 -2 39 12
82 30 73 30 79 35 72 55 -60 161 -234 573 -243 572 -6 0 -44 -14 -83 -31z"/>
<path d="M4004 2469 c-69 -16 -145 -68 -186 -129 -97 -142 -82 -319 36 -428
189 -174 475 -136 575 77 22 48 26 70 26 146 0 78 -4 97 -27 140 -75 144 -263
230 -424 194z m186 -171 c88 -45 113 -139 63 -239 -36 -70 -79 -99 -146 -99
-100 0 -167 66 -167 164 0 149 126 236 250 174z"/>
<path d="M5764 2290 c-38 -15 -64 -59 -64 -107 0 -38 5 -50 34 -79 38 -38 74
-44 132 -19 24 10 39 25 50 50 41 100 -52 196 -152 155z"/>
<path d="M4670 2270 c-108 -37 -183 -155 -165 -259 15 -92 81 -147 262 -220
162 -65 194 -94 170 -154 -20 -47 -59 -61 -153 -55 -64 4 -89 12 -157 47 -60
30 -83 38 -89 28 -65 -108 -68 -114 -50 -130 27 -24 113 -64 177 -83 82 -24
233 -25 300 -1 99 34 157 105 171 206 16 120 -48 191 -244 271 -158 65 -192
89 -192 135 0 55 44 85 124 85 86 0 216 -48 283 -104 l31 -26 40 68 c48 80 47
81 -58 136 -139 74 -331 97 -450 56z"/>
</g>
</svg>
